<svg width="1839" height="340" viewBox="0 0 1839 340" fill="none" xmlns="http://www.w3.org/2000/svg">
<path d="M362.578 302.211C401.719 302.211 425.625 284.633 425.625 254.75C425.625 222.055 395.977 212.328 369.492 208.109C340.898 204.242 324.844 197.094 324.844 180.336C324.844 167.211 332.812 154.203 361.641 154.203C385.547 154.203 398.438 165.453 398.438 181.273H419.297C419.297 154.672 399.375 135.922 361.875 135.922C320.391 135.922 304.102 156.43 304.102 180.219C304.102 212.445 336.445 221.234 363.047 225.688C386.836 229.32 404.648 236 404.648 254.75C404.648 274.438 389.648 284.398 362.461 284.398C336.211 284.398 320.742 269.398 320.742 252.641H300C300 276.781 319.336 302.211 362.578 302.211Z" fill="black"/>
<path d="M463.242 155.961C471.914 155.961 477.188 150.219 477.188 143.07C477.188 136.039 471.914 130.297 463.359 130.297C454.922 130.297 449.648 136.039 449.648 143.07C449.648 150.219 454.922 155.961 463.242 155.961ZM453.281 298.812H473.438V179.281H453.281V298.812Z" fill="black"/>
<path d="M658.125 175.883C639.609 175.883 623.438 186.195 614.18 206.586C607.969 186.312 593.906 175.883 572.461 175.883C553.242 175.883 537.422 187.367 531.328 202.367L531.094 179.281H512.109V298.812H532.031V236C532.031 211.625 548.789 194.75 567.07 194.75C586.172 194.75 597.773 206.82 597.773 234.359V298.812H617.695V236C617.695 211.625 634.453 194.75 652.617 194.75C671.836 194.75 683.438 206.938 683.438 234.359V298.812H703.477V234.008C703.477 195.805 687.773 175.883 658.125 175.883Z" fill="black"/>
<path d="M740.859 339.594H761.016V287.328L760.664 273.852C769.102 291.195 786.797 302.211 806.484 302.211C839.883 302.211 865.195 274.203 865.195 239.047C865.195 204.125 840 176 806.25 176C785.508 176 768.516 188.305 760.195 204.828V179.281H740.859V339.594ZM802.969 283.461C780 283.461 760.898 264.477 760.898 239.047C760.898 214.32 779.648 194.75 802.969 194.75C826.289 194.75 845.156 213.266 845.156 239.047C845.156 265.414 825.938 283.461 802.969 283.461Z" fill="black"/>
<path d="M893.906 298.812H914.062V133.578H893.906V298.812Z" fill="black"/>
<path d="M1062.54 236.117C1062.54 204.008 1037.93 175.883 1003.48 175.883C968.906 175.883 942.656 204.125 942.656 239.047C942.656 274.086 968.906 302.094 1003.48 302.094C1030.66 302.094 1051.99 284.75 1058.79 262.836H1036.17C1030.9 276.312 1019.06 283.344 1003.01 283.344C983.32 283.344 965.508 268.344 963.047 244.32H1062.19C1062.42 239.984 1062.54 238.227 1062.54 236.117ZM963.984 226.508C968.555 205.883 985.195 194.867 1003.12 194.867C1023.52 194.867 1040.74 209.516 1041.91 226.508H963.984Z" fill="black"/>
<path d="M1091.72 298.812H1112.46V238.93H1151.37C1153.12 238.93 1154.77 238.93 1156.52 238.812L1191.91 298.812H1215.82L1177.38 235.766C1198.36 230.141 1212.3 212.914 1212.3 189.477C1212.3 159.477 1190.27 139.438 1159.45 139.438H1091.72V298.812ZM1112.46 221.234V158.07H1158.63C1177.38 158.07 1191.56 171.43 1191.56 189.594C1191.56 208.461 1177.62 221.117 1158.98 221.234H1112.46Z" fill="black"/>
<path d="M1352.23 236.117C1352.23 204.008 1327.62 175.883 1293.16 175.883C1258.59 175.883 1232.34 204.125 1232.34 239.047C1232.34 274.086 1258.59 302.094 1293.16 302.094C1320.35 302.094 1341.68 284.75 1348.48 262.836H1325.86C1320.59 276.312 1308.75 283.344 1292.7 283.344C1273.01 283.344 1255.2 268.344 1252.73 244.32H1351.88C1352.11 239.984 1352.23 238.227 1352.23 236.117ZM1253.67 226.508C1258.24 205.883 1274.88 194.867 1292.81 194.867C1313.2 194.867 1330.43 209.516 1331.6 226.508H1253.67Z" fill="black"/>
<path d="M1379.06 339.594H1399.22V287.328L1398.87 273.852C1407.3 291.195 1425 302.211 1444.69 302.211C1478.09 302.211 1503.4 274.203 1503.4 239.047C1503.4 204.125 1478.2 176 1444.45 176C1423.71 176 1406.72 188.305 1398.4 204.828V179.281H1379.06V339.594ZM1441.17 283.461C1418.2 283.461 1399.1 264.477 1399.1 239.047C1399.1 214.32 1417.85 194.75 1441.17 194.75C1464.49 194.75 1483.36 213.266 1483.36 239.047C1483.36 265.414 1464.14 283.461 1441.17 283.461Z" fill="black"/>
<path d="M1584.14 302.211C1619.88 302.211 1646.48 274.203 1646.48 239.047C1646.48 204.008 1619.77 175.883 1584.14 175.883C1548.63 175.883 1522.03 204.125 1522.03 239.047C1522.03 274.203 1548.75 302.211 1584.14 302.211ZM1584.38 283.227C1560.59 283.227 1542.19 264.477 1542.19 239.047C1542.19 213.852 1560.59 194.867 1584.38 194.867C1608.05 194.867 1626.33 213.852 1626.33 239.047C1626.33 264.477 1608.05 283.227 1584.38 283.227Z" fill="black"/>
<path d="M1675.08 298.812H1695.35V242.562C1695.35 213.734 1710.94 196.977 1731.91 196.977H1742.46V179.281H1730.86C1713.52 179.281 1700.39 189.477 1694.53 206V179.281H1675.08V298.812Z" fill="black"/>
<path d="M1816.41 298.812H1838.44V281.703H1820.39C1809.73 281.703 1798.95 277.719 1798.95 255.453V196.977H1838.44V179.281H1798.95V143.656L1778.79 143.773V179.281H1752.19V196.977H1778.79V254.516C1778.79 291.781 1798.24 298.812 1816.41 298.812Z" fill="black"/>
<path d="M130.957 79.835C137.432 79.835 142.384 84.7865 142.384 91.6423C142.384 98.1173 137.432 103.069 130.957 103.069C124.482 103.069 119.15 98.1173 119.15 91.6423C119.15 84.7865 124.482 79.835 130.957 79.835Z" fill="#454540"/>
<path d="M167.141 94.6894C171.712 99.26 171.331 106.878 167.141 111.067C162.57 116.019 154.953 116.019 150.763 111.067C145.812 106.878 145.812 99.26 150.763 94.6894C154.953 90.4997 162.57 90.1188 167.141 94.6894Z" fill="#454540"/>
<path d="M111.532 94.6894C116.103 99.26 116.103 106.878 111.532 111.067C106.2 116.019 99.7248 116.019 94.7734 111.067C90.2028 106.497 90.2028 99.26 94.7734 94.6894C99.3439 90.4997 106.2 90.4997 111.532 94.6894Z" fill="#454540"/>
<path d="M170.188 119.447C176.663 119.447 181.995 124.398 181.995 130.873C181.995 137.348 176.663 142.681 170.188 142.681C163.713 142.681 158.762 137.348 158.762 130.873C158.762 124.398 163.713 119.447 170.188 119.447Z" fill="#454540"/>
<path d="M91.3454 119.447C97.8204 119.447 103.153 124.398 103.153 130.873C103.153 137.348 97.8204 142.681 91.3454 142.681C84.8704 142.681 79.9189 137.348 79.9189 130.873C79.9189 124.398 84.8704 119.447 91.3454 119.447Z" fill="#454540"/>
<path d="M167.141 150.298C171.712 155.25 171.331 162.486 167.141 167.057C162.57 171.628 155.334 171.628 150.763 167.057C145.812 162.106 145.812 155.25 150.763 150.298C154.953 145.728 162.951 145.728 167.141 150.298Z" fill="#454540"/>
<path d="M111.532 150.298C116.103 155.25 116.103 162.486 111.532 167.057C106.2 172.008 99.3439 171.628 94.7734 167.057C90.2028 162.486 90.2028 155.25 94.7734 150.298C99.3439 145.728 106.2 145.728 111.532 150.298Z" fill="#454540"/>
<path d="M130.957 158.678C137.432 158.678 142.384 163.629 142.384 170.104C142.384 176.96 137.432 181.911 130.957 181.911C124.482 181.911 119.15 176.96 119.15 170.104C119.15 163.629 124.482 158.678 130.957 158.678Z" fill="#454540"/>
<path d="M130.65 40.2969C137.125 40.2969 142.076 45.2483 142.076 51.7233C142.076 58.1983 137.125 63.5307 130.65 63.5307C124.175 63.5307 118.843 58.1983 118.843 51.7233C118.843 45.2483 124.175 40.2969 130.65 40.2969Z" fill="#76766A"/>
<path d="M165.31 47.5336C171.404 50.1998 173.69 56.6748 171.404 62.388C168.738 68.4822 162.644 71.1483 156.55 68.4822C150.837 66.1969 147.79 59.7219 150.456 53.6277C152.741 47.5336 159.597 45.2483 165.31 47.5336Z" fill="#76766A"/>
<path d="M96.3706 47.1528C102.465 44.8674 108.94 47.5336 111.606 53.6277C113.891 59.341 111.225 66.1969 105.131 68.4822C99.0368 70.7675 92.5618 68.1013 89.8956 62.0072C87.6103 56.2939 90.2765 49.438 96.3706 47.1528Z" fill="#76766A"/>
<path d="M194.638 66.5777C199.209 71.1483 199.209 78.766 194.638 83.3366C190.068 87.9072 182.45 87.9072 177.879 83.3366C173.309 78.766 173.309 71.1483 177.879 66.5777C182.45 62.0071 190.068 62.0071 194.638 66.5777Z" fill="#76766A"/>
<path d="M83.4206 66.5777C87.9912 71.1483 87.9912 78.766 83.4206 83.3366C78.4691 88.288 70.8515 87.9072 66.6618 83.3366C62.0912 78.766 62.0912 71.1483 66.6618 66.5777C70.8515 62.0071 78.4691 61.6263 83.4206 66.5777Z" fill="#76766A"/>
<path d="M62.0912 89.8116C68.1853 92.4777 71.2324 98.9527 68.5662 104.666C65.9 110.76 59.0441 113.807 52.95 110.76C47.6176 108.475 44.9515 102 47.2368 95.9057C49.5221 89.8116 56.3779 87.5263 62.0912 89.8116Z" fill="#76766A"/>
<path d="M198.828 90.1924C204.922 87.9072 211.778 90.5733 214.063 96.6674C216.349 102.381 213.682 109.237 207.588 111.903C201.875 114.188 195.019 111.141 192.734 105.047C190.449 99.3336 193.115 92.4777 198.828 90.1924Z" fill="#76766A"/>
<path d="M209.493 119.14C215.587 119.14 220.919 124.091 220.919 130.566C220.919 137.041 215.587 142.373 209.493 142.373C203.018 142.373 197.685 137.041 197.685 130.566C197.685 124.091 203.018 119.14 209.493 119.14Z" fill="#76766A"/>
<path d="M51.8074 119.14C58.2824 119.14 63.2338 124.091 63.2338 130.566C63.2338 137.041 58.2824 142.373 51.8074 142.373C45.3324 142.373 40 137.041 40 130.566C40 124.091 45.3324 119.14 51.8074 119.14Z" fill="#76766A"/>
<path d="M52.95 149.61C58.6632 147.325 65.5191 149.991 68.1853 156.466C70.4706 162.179 67.4235 169.035 61.3294 171.32C55.9971 173.606 49.1412 170.94 46.475 164.845C44.1897 159.132 47.2368 152.276 52.95 149.61Z" fill="#76766A"/>
<path d="M207.588 150.753C213.682 153.419 215.968 160.275 213.682 165.988C211.397 171.701 204.16 174.748 198.828 171.701C192.734 169.416 190.068 162.941 192.734 156.847C195.019 151.515 201.494 148.087 207.588 150.753Z" fill="#76766A"/>
<path d="M194.638 177.795C199.209 182.366 199.209 190.365 194.638 194.554C190.068 199.125 182.45 199.125 177.879 194.554C173.309 190.365 173.309 182.366 177.879 177.795C182.45 173.606 190.068 173.606 194.638 177.795Z" fill="#76766A"/>
<path d="M83.4206 177.795C87.6103 182.366 87.6103 190.365 83.4206 194.554C78.4691 199.125 71.2323 199.125 66.6618 194.554C62.0912 189.984 62.0912 182.366 66.6618 177.795C70.8515 173.606 78.4691 173.606 83.4206 177.795Z" fill="#76766A"/>
<path d="M103.988 192.65C110.082 195.316 113.51 201.791 110.082 207.885C107.797 213.598 101.322 216.265 95.2279 213.979C89.1338 211.313 86.4676 204.838 89.1338 198.744C91.4191 193.031 98.6559 190.365 103.988 192.65Z" fill="#76766A"/>
<path d="M156.169 193.031C161.501 190.745 168.738 193.412 171.024 199.125C173.309 205.219 170.262 211.694 164.929 214.36C158.835 216.645 151.979 213.979 149.313 207.885C146.647 201.791 150.075 195.316 156.169 193.031Z" fill="#76766A"/>
<path d="M130.65 197.601C137.125 197.601 142.076 202.934 142.076 209.409C142.076 215.884 137.125 220.835 130.65 220.835C124.175 220.835 118.843 215.884 118.843 209.409C118.843 202.934 124.175 197.601 130.65 197.601Z" fill="#76766A"/>
<path d="M129.881 0.296875C136.356 0.296875 141.307 5.62923 141.307 11.7234C141.307 18.1984 136.356 23.1498 129.881 23.1498C123.406 23.1498 118.074 18.1984 118.074 11.7234C118.074 5.62923 123.406 0.296875 129.881 0.296875Z" fill="#929285"/>
<path d="M80.747 9.81895C86.8412 7.53364 93.3162 10.1998 95.6015 16.2939C98.2676 21.6263 95.6015 28.8631 89.5073 31.1484C83.4132 33.4336 76.9382 30.7675 74.6529 24.6734C72.3677 18.9601 75.0338 12.1042 80.747 9.81895Z" fill="#929285"/>
<path d="M179.776 10.1998C185.49 12.4851 188.537 19.341 185.871 25.4351C183.585 31.1483 176.729 33.8145 171.016 31.5292C164.922 28.8631 162.256 22.3881 164.541 16.6748C167.207 10.5807 173.682 7.53364 179.776 10.1998Z" fill="#929285"/>
<path d="M221.293 38.3851C226.244 42.5748 226.244 50.1925 221.293 54.7631C217.103 58.9528 209.485 59.3337 204.915 54.7631C200.344 50.1925 200.725 42.5748 204.915 38.3851C209.485 33.4336 217.103 33.4336 221.293 38.3851Z" fill="#929285"/>
<path d="M54.0853 38.3851C59.0368 42.5748 59.0368 50.1925 54.0853 54.7631C49.8956 58.9528 42.6588 59.3337 38.0882 54.7631C33.5176 50.1925 33.8985 42.5748 38.0882 38.3851C42.6588 33.4336 49.8956 33.4336 54.0853 38.3851Z" fill="#929285"/>
<path d="M25.1382 73.8072C31.2323 76.4733 34.2794 82.9484 31.2323 89.0425C28.5662 94.7557 22.0912 97.8028 16.3779 95.1366C10.2838 92.4704 7.23676 85.6145 10.2838 79.5204C12.5691 74.1881 19.425 71.141 25.1382 73.8072Z" fill="#929285"/>
<path d="M234.624 74.9498C240.718 72.2837 247.193 74.9498 249.478 81.0439C252.144 87.1381 249.097 93.6131 243.384 95.8984C237.29 98.1836 231.196 95.5175 228.529 89.8042C225.863 83.7101 228.91 77.616 234.624 74.9498Z" fill="#929285"/>
<path d="M247.954 118.37C254.049 118.37 259.381 123.322 259.381 129.797C259.381 136.272 254.049 141.604 247.954 141.604C241.479 141.604 236.528 136.272 236.528 129.797C236.528 123.322 241.479 118.37 247.954 118.37Z" fill="#929285"/>
<path d="M11.4265 118.37C17.9015 118.37 23.2338 123.322 23.2338 129.797C23.2338 136.272 17.9015 141.604 11.4265 141.604C5.33235 141.604 0 136.272 0 129.797C0 123.322 5.33235 118.37 11.4265 118.37Z" fill="#929285"/>
<path d="M15.6162 164.076C21.7103 161.791 28.1853 164.457 30.4706 170.17C32.7559 176.265 30.0897 182.74 24.7574 185.025C18.6632 187.691 12.1882 185.025 9.14118 178.931C6.85588 172.837 9.52206 166.362 15.6162 164.076Z" fill="#929285"/>
<path d="M243.003 165.219C249.097 167.885 251.763 174.36 249.478 180.454C246.812 185.787 239.956 189.215 234.243 186.548C228.529 184.263 225.482 177.026 228.149 171.694C230.434 165.6 237.29 162.553 243.003 165.219Z" fill="#929285"/>
<path d="M221.293 205.212C226.244 209.401 226.244 217.019 221.293 221.59C217.103 225.779 209.485 226.16 204.915 221.59C200.344 217.019 200.725 209.401 204.915 205.212C209.485 200.641 217.103 200.641 221.293 205.212Z" fill="#929285"/>
<path d="M54.0853 205.212C59.0368 209.401 59.0368 217.019 54.0853 221.59C49.8956 225.779 42.6588 226.16 38.0882 221.59C33.5176 217.019 33.8985 209.401 38.0882 205.212C42.6588 200.641 49.8956 200.641 54.0853 205.212Z" fill="#929285"/>
<path d="M88.3647 228.445C94.0779 230.731 96.7441 237.206 94.4588 243.3C92.1735 249.394 85.3176 251.679 79.2235 249.394C73.5103 247.109 70.4632 240.253 73.1294 234.54C75.7956 228.445 82.6515 225.398 88.3647 228.445Z" fill="#929285"/>
<path d="M170.254 228.826C175.587 225.779 182.824 228.826 185.109 234.92C187.775 241.015 184.728 247.49 178.634 249.775C172.921 252.06 166.065 249.394 163.779 243.681C161.494 237.967 164.16 231.492 170.254 228.826Z" fill="#929285"/>
<path d="M129.881 236.444C136.356 236.444 141.307 241.395 141.307 247.87C141.307 253.965 136.356 259.297 129.881 259.297C123.406 259.297 118.074 253.965 118.074 247.87C118.074 241.395 123.406 236.444 129.881 236.444Z" fill="#929285"/>
<path d="M142.153 130.261C142.153 123.786 137.201 118.835 130.726 118.835C124.251 118.835 118.919 123.786 118.919 130.261C118.919 136.736 124.251 142.069 130.726 142.069C137.201 142.069 142.153 136.736 142.153 130.261Z" fill="#171716"/>
</svg>
