<svg width="1843" height="327" viewBox="0 0 1843 327" fill="none" xmlns="http://www.w3.org/2000/svg">
<path d="M428.957 227.981C466.458 227.981 489.363 211.184 489.363 182.628C489.363 151.385 460.957 142.091 435.582 138.059C408.185 134.364 392.803 127.533 392.803 111.519C392.803 98.9775 400.438 86.5475 428.059 86.5475C450.964 86.5475 463.314 97.2977 463.314 112.415H483.3C483.3 86.9954 464.213 69.0783 428.283 69.0783C388.537 69.0783 372.93 88.6751 372.93 111.407C372.93 142.203 403.919 150.601 429.406 154.857C452.199 158.328 469.265 164.711 469.265 182.628C469.265 201.441 454.894 210.96 428.845 210.96C403.694 210.96 388.873 196.626 388.873 180.612H369C369 203.681 387.526 227.981 428.957 227.981Z" fill="black"/>
<path d="M525.405 88.2272C533.713 88.2272 538.766 82.7401 538.766 75.9092C538.766 69.1902 533.713 63.7031 525.517 63.7031C517.433 63.7031 512.38 69.1902 512.38 75.9092C512.38 82.7401 517.433 88.2272 525.405 88.2272ZM515.861 224.733H535.173V110.512H515.861V224.733Z" fill="black"/>
<path d="M712.125 107.264C694.385 107.264 678.89 117.119 670.02 136.603C664.069 117.231 650.596 107.264 630.049 107.264C611.635 107.264 596.477 118.238 590.639 132.572L590.414 110.512H572.225V224.733H591.313V164.711C591.313 141.419 607.369 125.293 624.884 125.293C643.186 125.293 654.301 136.827 654.301 163.143V224.733H673.389V164.711C673.389 141.419 689.445 125.293 706.848 125.293C725.262 125.293 736.377 136.939 736.377 163.143V224.733H755.577V162.807C755.577 126.301 740.532 107.264 712.125 107.264Z" fill="black"/>
<path d="M791.394 263.703H810.706V213.759L810.369 200.881C818.453 217.455 835.407 227.981 854.27 227.981C886.27 227.981 910.522 201.217 910.522 167.622C910.522 134.252 886.382 107.376 854.046 107.376C834.172 107.376 817.892 119.134 809.92 134.924V110.512H791.394V263.703ZM850.902 210.064C828.895 210.064 810.594 191.923 810.594 167.622C810.594 143.994 828.558 125.293 850.902 125.293C873.245 125.293 891.322 142.986 891.322 167.622C891.322 192.818 872.909 210.064 850.902 210.064Z" fill="black"/>
<path d="M938.03 224.733H957.342V66.8386H938.03V224.733Z" fill="black"/>
<path d="M1099.6 164.823C1099.6 134.14 1076.02 107.264 1043.01 107.264C1009.89 107.264 984.739 134.252 984.739 167.622C984.739 201.105 1009.89 227.869 1043.01 227.869C1069.06 227.869 1089.49 211.296 1096.01 190.355H1074.34C1069.28 203.233 1057.94 209.952 1042.56 209.952C1023.7 209.952 1006.63 195.618 1004.28 172.662H1099.26C1099.49 168.518 1099.6 166.839 1099.6 164.823ZM1005.17 155.64C1009.55 135.932 1025.5 125.405 1042.67 125.405C1062.21 125.405 1078.72 139.403 1079.84 155.64H1005.17Z" fill="black"/>
<path d="M1127.56 224.733H1147.43V167.511H1184.71C1186.39 167.511 1187.96 167.511 1189.65 167.399L1223.56 224.733H1246.46L1209.63 164.487C1229.73 159.112 1243.09 142.65 1243.09 120.254C1243.09 91.5867 1221.98 72.4377 1192.45 72.4377H1127.56V224.733ZM1147.43 150.601V90.2429H1191.67C1209.63 90.2429 1223.22 103.009 1223.22 120.366C1223.22 138.395 1209.86 150.489 1192.01 150.601H1147.43Z" fill="black"/>
<path d="M1377.15 164.823C1377.15 134.14 1353.58 107.264 1320.57 107.264C1287.44 107.264 1262.29 134.252 1262.29 167.622C1262.29 201.105 1287.44 227.869 1320.57 227.869C1346.61 227.869 1367.05 211.296 1373.56 190.355H1351.89C1346.84 203.233 1335.5 209.952 1320.12 209.952C1301.25 209.952 1284.19 195.618 1281.83 172.662H1376.82C1377.04 168.518 1377.15 166.839 1377.15 164.823ZM1282.73 155.64C1287.11 135.932 1303.05 125.405 1320.23 125.405C1339.77 125.405 1356.27 139.403 1357.39 155.64H1282.73Z" fill="black"/>
<path d="M1402.87 263.703H1422.18V213.759L1421.84 200.881C1429.93 217.455 1446.88 227.981 1465.74 227.981C1497.74 227.981 1521.99 201.217 1521.99 167.622C1521.99 134.252 1497.85 107.376 1465.52 107.376C1445.64 107.376 1429.36 119.134 1421.39 134.924V110.512H1402.87V263.703ZM1462.37 210.064C1440.37 210.064 1422.07 191.923 1422.07 167.622C1422.07 143.994 1440.03 125.293 1462.37 125.293C1484.72 125.293 1502.79 142.986 1502.79 167.622C1502.79 192.818 1484.38 210.064 1462.37 210.064Z" fill="black"/>
<path d="M1599.35 227.981C1633.6 227.981 1659.09 201.217 1659.09 167.622C1659.09 134.14 1633.49 107.264 1599.35 107.264C1565.33 107.264 1539.85 134.252 1539.85 167.622C1539.85 201.217 1565.45 227.981 1599.35 227.981ZM1599.58 209.84C1576.79 209.84 1559.16 191.923 1559.16 167.622C1559.16 143.546 1576.79 125.405 1599.58 125.405C1622.26 125.405 1639.77 143.546 1639.77 167.622C1639.77 191.923 1622.26 209.84 1599.58 209.84Z" fill="black"/>
<path d="M1686.48 224.733H1705.91V170.982C1705.91 143.434 1720.84 127.421 1740.94 127.421H1751.04V110.512H1739.93C1723.31 110.512 1710.74 120.254 1705.12 136.044V110.512H1686.48V224.733Z" fill="black"/>
<path d="M1821.89 224.733H1843V208.384H1825.71C1815.49 208.384 1805.16 204.577 1805.16 183.3V127.421H1843V110.512H1805.16V76.4691L1785.85 76.5811V110.512H1760.36V127.421H1785.85V182.404C1785.85 218.014 1804.49 224.733 1821.89 224.733Z" fill="black"/>
<path d="M229.145 51.7031L18 137.668L261 186.703L104.182 296.703L229.145 51.7031Z" stroke="#A9AEB1" stroke-width="12" stroke-linecap="square" stroke-linejoin="round"/>
<circle cx="269" cy="185.703" r="18" fill="#71767A"/>
<circle cx="18" cy="136.703" r="18" fill="#71767A"/>
<path fill-rule="evenodd" clip-rule="evenodd" d="M264.155 49.2544C260.563 56.3143 254.292 61.1174 247.21 63.0556C240.446 64.9068 233.356 67.8903 230.176 74.1406L128.91 273.18C126.109 278.685 127.289 285.274 128.374 291.355C129.148 295.696 128.567 300.317 126.413 304.55C121.154 314.888 108.51 319.004 98.1734 313.745C87.8364 308.485 83.72 295.842 88.9792 285.505C91.1332 281.272 94.5258 278.081 98.4912 276.151C104.045 273.448 110.066 270.523 112.867 265.018L214.885 64.5006C217.854 58.6647 216.51 51.7028 214.455 45.4859C212.274 38.8865 212.625 31.452 216.026 24.7676C222.788 11.4772 239.044 6.18469 252.334 12.9465C265.624 19.7084 270.917 35.964 264.155 49.2544Z" fill="#3D4551"/>
</svg>
