<svg width="1839" height="355" viewBox="0 0 1839 355" fill="none" xmlns="http://www.w3.org/2000/svg">
<path d="M362.578 317.211C401.719 317.211 425.625 299.633 425.625 269.75C425.625 237.055 395.977 227.328 369.492 223.109C340.898 219.242 324.844 212.094 324.844 195.336C324.844 182.211 332.812 169.203 361.641 169.203C385.547 169.203 398.438 180.453 398.438 196.273H419.297C419.297 169.672 399.375 150.922 361.875 150.922C320.391 150.922 304.102 171.43 304.102 195.219C304.102 227.445 336.445 236.234 363.047 240.688C386.836 244.32 404.648 251 404.648 269.75C404.648 289.438 389.648 299.398 362.461 299.398C336.211 299.398 320.742 284.398 320.742 267.641H300C300 291.781 319.336 317.211 362.578 317.211Z" fill="#454540"/>
<path d="M453.281 313.812H473.438V194.281H453.281V313.812Z" fill="#454540"/>
<path d="M658.125 190.883C639.609 190.883 623.438 201.195 614.18 221.586C607.969 201.312 593.906 190.883 572.461 190.883C553.242 190.883 537.422 202.367 531.328 217.367L531.094 194.281H512.109V313.812H532.031V251C532.031 226.625 548.789 209.75 567.07 209.75C586.172 209.75 597.773 221.82 597.773 249.359V313.812H617.695V251C617.695 226.625 634.453 209.75 652.617 209.75C671.836 209.75 683.438 221.938 683.438 249.359V313.812H703.477V249.008C703.477 210.805 687.773 190.883 658.125 190.883Z" fill="#454540"/>
<path d="M740.859 354.594H761.016V302.328L760.664 288.852C769.102 306.195 786.797 317.211 806.484 317.211C839.883 317.211 865.195 289.203 865.195 254.047C865.195 219.125 840 191 806.25 191C785.508 191 768.516 203.305 760.195 219.828V194.281H740.859V354.594ZM802.969 298.461C780 298.461 760.898 279.477 760.898 254.047C760.898 229.32 779.648 209.75 802.969 209.75C826.289 209.75 845.156 228.266 845.156 254.047C845.156 280.414 825.938 298.461 802.969 298.461Z" fill="#454540"/>
<path d="M893.906 313.812H914.062V148.578H893.906V313.812Z" fill="#454540"/>
<path d="M1062.54 251.117C1062.54 219.008 1037.93 190.883 1003.48 190.883C968.906 190.883 942.656 219.125 942.656 254.047C942.656 289.086 968.906 317.094 1003.48 317.094C1030.66 317.094 1051.99 299.75 1058.79 277.836H1036.17C1030.9 291.312 1019.06 298.344 1003.01 298.344C983.32 298.344 965.508 283.344 963.047 259.32H1062.19C1062.42 254.984 1062.54 253.227 1062.54 251.117ZM963.984 241.508C968.555 220.883 985.195 209.867 1003.12 209.867C1023.52 209.867 1040.74 224.516 1041.91 241.508H963.984Z" fill="#454540"/>
<path d="M1091.72 313.812H1112.46V253.93H1151.37C1153.12 253.93 1154.77 253.93 1156.52 253.812L1191.91 313.812H1215.82L1177.38 250.766C1198.36 245.141 1212.3 227.914 1212.3 204.477C1212.3 174.477 1190.27 154.438 1159.45 154.438H1091.72V313.812ZM1112.46 236.234V173.07H1158.63C1177.38 173.07 1191.56 186.43 1191.56 204.594C1191.56 223.461 1177.62 236.117 1158.98 236.234H1112.46Z" fill="#454540"/>
<path d="M1352.23 251.117C1352.23 219.008 1327.62 190.883 1293.16 190.883C1258.59 190.883 1232.34 219.125 1232.34 254.047C1232.34 289.086 1258.59 317.094 1293.16 317.094C1320.35 317.094 1341.68 299.75 1348.48 277.836H1325.86C1320.59 291.312 1308.75 298.344 1292.7 298.344C1273.01 298.344 1255.2 283.344 1252.73 259.32H1351.88C1352.11 254.984 1352.23 253.227 1352.23 251.117ZM1253.67 241.508C1258.24 220.883 1274.88 209.867 1292.81 209.867C1313.2 209.867 1330.43 224.516 1331.6 241.508H1253.67Z" fill="#454540"/>
<path d="M1379.06 354.594H1399.22V302.328L1398.87 288.852C1407.3 306.195 1425 317.211 1444.69 317.211C1478.09 317.211 1503.4 289.203 1503.4 254.047C1503.4 219.125 1478.2 191 1444.45 191C1423.71 191 1406.72 203.305 1398.4 219.828V194.281H1379.06V354.594ZM1441.17 298.461C1418.2 298.461 1399.1 279.477 1399.1 254.047C1399.1 229.32 1417.85 209.75 1441.17 209.75C1464.49 209.75 1483.36 228.266 1483.36 254.047C1483.36 280.414 1464.14 298.461 1441.17 298.461Z" fill="#454540"/>
<path d="M1584.14 317.211C1619.88 317.211 1646.48 289.203 1646.48 254.047C1646.48 219.008 1619.77 190.883 1584.14 190.883C1548.63 190.883 1522.03 219.125 1522.03 254.047C1522.03 289.203 1548.75 317.211 1584.14 317.211ZM1584.38 298.227C1560.59 298.227 1542.19 279.477 1542.19 254.047C1542.19 228.852 1560.59 209.867 1584.38 209.867C1608.05 209.867 1626.33 228.852 1626.33 254.047C1626.33 279.477 1608.05 298.227 1584.38 298.227Z" fill="#454540"/>
<path d="M1675.08 313.812H1695.35V257.562C1695.35 228.734 1710.94 211.977 1731.91 211.977H1742.46V194.281H1730.86C1713.52 194.281 1700.39 204.477 1694.53 221V194.281H1675.08V313.812Z" fill="#454540"/>
<path d="M1816.41 313.812H1838.44V296.703H1820.39C1809.73 296.703 1798.95 292.719 1798.95 270.453V211.977H1838.44V194.281H1798.95V158.656L1778.79 158.773V194.281H1752.19V211.977H1778.79V269.516C1778.79 306.781 1798.24 313.812 1816.41 313.812Z" fill="#454540"/>
<path d="M477.188 158.07C477.188 165.219 471.914 170.961 463.242 170.961C454.922 170.961 449.648 165.219 449.648 158.07C449.648 151.039 454.922 145.297 463.359 145.297C471.914 145.297 477.188 151.039 477.188 158.07Z" fill="#454540"/>
<g opacity="0.4">
<circle cx="134.679" cy="51.2776" r="12" transform="rotate(-22.5 134.679 51.2776)" fill="#00BDE3"/>
<circle cx="180.366" cy="60.2373" r="12" fill="#00BDE3"/>
<circle cx="135.321" cy="289.92" r="12" transform="rotate(157.5 135.321 289.92)" fill="#00BDE3"/>
<circle cx="89.0409" cy="60.4834" r="12" transform="rotate(-45 89.0409 60.4834)" fill="#00BDE3"/>
<circle cx="180.959" cy="280.715" r="12" transform="rotate(135 180.959 280.715)" fill="#00BDE3"/>
<circle cx="24.6387" cy="125.232" r="12" transform="rotate(-90 24.6387 125.232)" fill="#00BDE3"/>
<circle cx="245.361" cy="215.964" r="12" transform="rotate(90 245.361 215.964)" fill="#00BDE3"/>
<circle cx="24.8848" cy="216.558" r="12" transform="rotate(-135 24.8848 216.558)" fill="#00BDE3"/>
<circle cx="245.116" cy="124.64" r="12" transform="rotate(45 245.116 124.64)" fill="#00BDE3"/>
<circle cx="89.6348" cy="280.96" r="12" transform="rotate(-180 89.6348 280.96)" fill="#00BDE3"/>
<circle cx="254.321" cy="170.277" r="12" transform="rotate(67.5 254.321 170.277)" fill="#00BDE3"/>
<circle cx="15.6789" cy="170.92" r="12" transform="rotate(-112.5 15.6789 170.92)" fill="#00BDE3"/>
<circle cx="219.601" cy="254.744" r="12" transform="rotate(112.5 219.601 254.744)" fill="#00BDE3"/>
<circle cx="50.4004" cy="86.4529" r="12" transform="rotate(-67.5 50.4004 86.4529)" fill="#00BDE3"/>
<circle cx="219.146" cy="85.9981" r="12" transform="rotate(22.5 219.146 85.9981)" fill="#00BDE3"/>
<circle cx="50.8543" cy="255.198" r="12" transform="rotate(-157.5 50.8543 255.198)" fill="#00BDE3"/>
</g>
<g opacity="0.6">
<circle cx="135" cy="107.956" r="15" transform="rotate(90 135 107.956)" fill="#00BDE3"/>
<circle cx="135" cy="233.241" r="15" transform="rotate(-90 135 233.241)" fill="#00BDE3"/>
<circle cx="197.643" cy="170.599" r="15" transform="rotate(-180 197.643 170.599)" fill="#00BDE3"/>
<circle cx="72.3574" cy="170.599" r="15" fill="#00BDE3"/>
<circle cx="179.295" cy="214.893" r="15" transform="rotate(-135 179.295 214.893)" fill="#00BDE3"/>
<circle cx="90.7051" cy="126.303" r="15" transform="rotate(45 90.7051 126.303)" fill="#00BDE3"/>
<circle cx="179.295" cy="126.304" r="15" transform="rotate(135 179.295 126.304)" fill="#00BDE3"/>
<circle cx="90.7054" cy="214.894" r="15" transform="rotate(-45 90.7054 214.894)" fill="#00BDE3"/>
</g>
<circle cx="135" cy="170.599" r="18" fill="#00BDE3"/>
</svg>
