<svg width="1835" height="355" viewBox="0 0 1835 355" fill="none" xmlns="http://www.w3.org/2000/svg">
<path d="M358.578 317.211C397.719 317.211 421.625 299.633 421.625 269.75C421.625 237.055 391.977 227.328 365.492 223.109C336.898 219.242 320.844 212.094 320.844 195.336C320.844 182.211 328.812 169.203 357.641 169.203C381.547 169.203 394.438 180.453 394.438 196.273H415.297C415.297 169.672 395.375 150.922 357.875 150.922C316.391 150.922 300.102 171.43 300.102 195.219C300.102 227.445 332.445 236.234 359.047 240.688C382.836 244.32 400.648 251 400.648 269.75C400.648 289.438 385.648 299.398 358.461 299.398C332.211 299.398 316.742 284.398 316.742 267.641H296C296 291.781 315.336 317.211 358.578 317.211Z" fill="#454540"/>
<path d="M449.281 313.812H469.438V194.281H449.281V313.812Z" fill="#454540"/>
<path d="M654.125 190.883C635.609 190.883 619.438 201.195 610.18 221.586C603.969 201.312 589.906 190.883 568.461 190.883C549.242 190.883 533.422 202.367 527.328 217.367L527.094 194.281H508.109V313.812H528.031V251C528.031 226.625 544.789 209.75 563.07 209.75C582.172 209.75 593.773 221.82 593.773 249.359V313.812H613.695V251C613.695 226.625 630.453 209.75 648.617 209.75C667.836 209.75 679.438 221.938 679.438 249.359V313.812H699.477V249.008C699.477 210.805 683.773 190.883 654.125 190.883Z" fill="#454540"/>
<path d="M736.859 354.594H757.016V302.328L756.664 288.852C765.102 306.195 782.797 317.211 802.484 317.211C835.883 317.211 861.195 289.203 861.195 254.047C861.195 219.125 836 191 802.25 191C781.508 191 764.516 203.305 756.195 219.828V194.281H736.859V354.594ZM798.969 298.461C776 298.461 756.898 279.477 756.898 254.047C756.898 229.32 775.648 209.75 798.969 209.75C822.289 209.75 841.156 228.266 841.156 254.047C841.156 280.414 821.938 298.461 798.969 298.461Z" fill="#454540"/>
<path d="M889.906 313.812H910.062V148.578H889.906V313.812Z" fill="#454540"/>
<path d="M1058.54 251.117C1058.54 219.008 1033.93 190.883 999.477 190.883C964.906 190.883 938.656 219.125 938.656 254.047C938.656 289.086 964.906 317.094 999.477 317.094C1026.66 317.094 1047.99 299.75 1054.79 277.836H1032.17C1026.9 291.312 1015.06 298.344 999.008 298.344C979.32 298.344 961.508 283.344 959.047 259.32H1058.19C1058.42 254.984 1058.54 253.227 1058.54 251.117ZM959.984 241.508C964.555 220.883 981.195 209.867 999.125 209.867C1019.52 209.867 1036.74 224.516 1037.91 241.508H959.984Z" fill="#454540"/>
<path d="M1087.72 313.812H1108.46V253.93H1147.37C1149.12 253.93 1150.77 253.93 1152.52 253.812L1187.91 313.812H1211.82L1173.38 250.766C1194.36 245.141 1208.3 227.914 1208.3 204.477C1208.3 174.477 1186.27 154.438 1155.45 154.438H1087.72V313.812ZM1108.46 236.234V173.07H1154.63C1173.38 173.07 1187.56 186.43 1187.56 204.594C1187.56 223.461 1173.62 236.117 1154.98 236.234H1108.46Z" fill="#454540"/>
<path d="M1348.23 251.117C1348.23 219.008 1323.62 190.883 1289.16 190.883C1254.59 190.883 1228.34 219.125 1228.34 254.047C1228.34 289.086 1254.59 317.094 1289.16 317.094C1316.35 317.094 1337.68 299.75 1344.48 277.836H1321.86C1316.59 291.312 1304.75 298.344 1288.7 298.344C1269.01 298.344 1251.2 283.344 1248.73 259.32H1347.88C1348.11 254.984 1348.23 253.227 1348.23 251.117ZM1249.67 241.508C1254.24 220.883 1270.88 209.867 1288.81 209.867C1309.2 209.867 1326.43 224.516 1327.6 241.508H1249.67Z" fill="#454540"/>
<path d="M1375.06 354.594H1395.22V302.328L1394.87 288.852C1403.3 306.195 1421 317.211 1440.69 317.211C1474.09 317.211 1499.4 289.203 1499.4 254.047C1499.4 219.125 1474.2 191 1440.45 191C1419.71 191 1402.72 203.305 1394.4 219.828V194.281H1375.06V354.594ZM1437.17 298.461C1414.2 298.461 1395.1 279.477 1395.1 254.047C1395.1 229.32 1413.85 209.75 1437.17 209.75C1460.49 209.75 1479.36 228.266 1479.36 254.047C1479.36 280.414 1460.14 298.461 1437.17 298.461Z" fill="#454540"/>
<path d="M1580.14 317.211C1615.88 317.211 1642.48 289.203 1642.48 254.047C1642.48 219.008 1615.77 190.883 1580.14 190.883C1544.63 190.883 1518.03 219.125 1518.03 254.047C1518.03 289.203 1544.75 317.211 1580.14 317.211ZM1580.38 298.227C1556.59 298.227 1538.19 279.477 1538.19 254.047C1538.19 228.852 1556.59 209.867 1580.38 209.867C1604.05 209.867 1622.33 228.852 1622.33 254.047C1622.33 279.477 1604.05 298.227 1580.38 298.227Z" fill="#454540"/>
<path d="M1671.08 313.812H1691.35V257.562C1691.35 228.734 1706.94 211.977 1727.91 211.977H1738.46V194.281H1726.86C1709.52 194.281 1696.39 204.477 1690.53 221V194.281H1671.08V313.812Z" fill="#454540"/>
<path d="M1812.41 313.812H1834.44V296.703H1816.39C1805.73 296.703 1794.95 292.719 1794.95 270.453V211.977H1834.44V194.281H1794.95V158.656L1774.79 158.773V194.281H1748.19V211.977H1774.79V269.516C1774.79 306.781 1794.24 313.812 1812.41 313.812Z" fill="#454540"/>
<path d="M473.188 158.07C473.188 165.219 467.914 170.961 459.242 170.961C450.922 170.961 445.648 165.219 445.648 158.07C445.648 151.039 450.922 145.297 459.359 145.297C467.914 145.297 473.188 151.039 473.188 158.07Z" fill="#454540"/>
<circle cx="134.679" cy="51.2776" r="12" transform="rotate(-22.5 134.679 51.2776)" fill="#00BDE3"/>
<circle cx="135.321" cy="289.92" r="12" transform="rotate(157.5 135.321 289.92)" fill="#00BDE3"/>
<circle cx="89.0409" cy="60.4834" r="12" transform="rotate(-45 89.0409 60.4834)" fill="#00BDE3"/>
<circle cx="180.959" cy="280.715" r="12" transform="rotate(135 180.959 280.715)" fill="#00BDE3"/>
<circle cx="24.6387" cy="125.232" r="12" transform="rotate(-90 24.6387 125.232)" fill="#00BDE3"/>
<circle cx="245.362" cy="215.964" r="12" transform="rotate(90 245.362 215.964)" fill="#00BDE3"/>
<circle cx="24.8845" cy="216.558" r="12" transform="rotate(-135 24.8845 216.558)" fill="#00BDE3"/>
<circle cx="245.116" cy="124.64" r="12" transform="rotate(45 245.116 124.64)" fill="#00BDE3"/>
<circle cx="89.6348" cy="280.96" r="12" transform="rotate(-180 89.6348 280.96)" fill="#00BDE3"/>
<circle cx="180.366" cy="60.2373" r="12" fill="#00BDE3"/>
<circle cx="254.322" cy="170.277" r="12" transform="rotate(67.5 254.322 170.277)" fill="#00BDE3"/>
<circle cx="15.6787" cy="170.92" r="12" transform="rotate(-112.5 15.6787 170.92)" fill="#00BDE3"/>
<circle cx="219.601" cy="254.744" r="12" transform="rotate(112.5 219.601 254.744)" fill="#00BDE3"/>
<circle cx="50.4002" cy="86.4529" r="12" transform="rotate(-67.5 50.4002 86.4529)" fill="#00BDE3"/>
<circle cx="219.146" cy="85.9981" r="12" transform="rotate(22.5 219.146 85.9981)" fill="#00BDE3"/>
<circle cx="50.8543" cy="255.198" r="12" transform="rotate(-157.5 50.8543 255.198)" fill="#00BDE3"/>
<circle cx="135" cy="107.956" r="15" transform="rotate(90 135 107.956)" fill="#00BDE3"/>
<circle cx="135" cy="233.241" r="15" transform="rotate(-90 135 233.241)" fill="#00BDE3"/>
<circle cx="197.643" cy="170.599" r="15" transform="rotate(-180 197.643 170.599)" fill="#00BDE3"/>
<circle cx="72.3574" cy="170.599" r="15" fill="#00BDE3"/>
<circle cx="179.295" cy="214.893" r="15" transform="rotate(-135 179.295 214.893)" fill="#00BDE3"/>
<circle cx="90.7051" cy="126.303" r="15" transform="rotate(45 90.7051 126.303)" fill="#00BDE3"/>
<circle cx="179.295" cy="126.304" r="15" transform="rotate(135 179.295 126.304)" fill="#00BDE3"/>
<circle cx="90.7049" cy="214.894" r="15" transform="rotate(-45 90.7049 214.894)" fill="#00BDE3"/>
<circle cx="135" cy="170.599" r="18" fill="#00BDE3"/>
</svg>
