<svg width="1831" height="355" viewBox="0 0 1831 355" fill="none" xmlns="http://www.w3.org/2000/svg">
<path d="M354.578 317.211C393.719 317.211 417.625 299.633 417.625 269.75C417.625 237.055 387.977 227.328 361.492 223.109C332.898 219.242 316.844 212.094 316.844 195.336C316.844 182.211 324.812 169.203 353.641 169.203C377.547 169.203 390.438 180.453 390.438 196.273H411.297C411.297 169.672 391.375 150.922 353.875 150.922C312.391 150.922 296.102 171.43 296.102 195.219C296.102 227.445 328.445 236.234 355.047 240.688C378.836 244.32 396.648 251 396.648 269.75C396.648 289.438 381.648 299.398 354.461 299.398C328.211 299.398 312.742 284.398 312.742 267.641H292C292 291.781 311.336 317.211 354.578 317.211Z" fill="#454540"/>
<path d="M445.281 313.812H465.438V194.281H445.281V313.812Z" fill="#454540"/>
<path d="M650.125 190.883C631.609 190.883 615.438 201.195 606.18 221.586C599.969 201.312 585.906 190.883 564.461 190.883C545.242 190.883 529.422 202.367 523.328 217.367L523.094 194.281H504.109V313.812H524.031V251C524.031 226.625 540.789 209.75 559.07 209.75C578.172 209.75 589.773 221.82 589.773 249.359V313.812H609.695V251C609.695 226.625 626.453 209.75 644.617 209.75C663.836 209.75 675.438 221.938 675.438 249.359V313.812H695.477V249.008C695.477 210.805 679.773 190.883 650.125 190.883Z" fill="#454540"/>
<path d="M732.859 354.594H753.016V302.328L752.664 288.852C761.102 306.195 778.797 317.211 798.484 317.211C831.883 317.211 857.195 289.203 857.195 254.047C857.195 219.125 832 191 798.25 191C777.508 191 760.516 203.305 752.195 219.828V194.281H732.859V354.594ZM794.969 298.461C772 298.461 752.898 279.477 752.898 254.047C752.898 229.32 771.648 209.75 794.969 209.75C818.289 209.75 837.156 228.266 837.156 254.047C837.156 280.414 817.938 298.461 794.969 298.461Z" fill="#454540"/>
<path d="M885.906 313.812H906.062V148.578H885.906V313.812Z" fill="#454540"/>
<path d="M1054.54 251.117C1054.54 219.008 1029.93 190.883 995.477 190.883C960.906 190.883 934.656 219.125 934.656 254.047C934.656 289.086 960.906 317.094 995.477 317.094C1022.66 317.094 1043.99 299.75 1050.79 277.836H1028.17C1022.9 291.312 1011.06 298.344 995.008 298.344C975.32 298.344 957.508 283.344 955.047 259.32H1054.19C1054.42 254.984 1054.54 253.227 1054.54 251.117ZM955.984 241.508C960.555 220.883 977.195 209.867 995.125 209.867C1015.52 209.867 1032.74 224.516 1033.91 241.508H955.984Z" fill="#454540"/>
<path d="M1083.72 313.812H1104.46V253.93H1143.37C1145.12 253.93 1146.77 253.93 1148.52 253.812L1183.91 313.812H1207.82L1169.38 250.766C1190.36 245.141 1204.3 227.914 1204.3 204.477C1204.3 174.477 1182.27 154.438 1151.45 154.438H1083.72V313.812ZM1104.46 236.234V173.07H1150.63C1169.38 173.07 1183.56 186.43 1183.56 204.594C1183.56 223.461 1169.62 236.117 1150.98 236.234H1104.46Z" fill="#454540"/>
<path d="M1344.23 251.117C1344.23 219.008 1319.62 190.883 1285.16 190.883C1250.59 190.883 1224.34 219.125 1224.34 254.047C1224.34 289.086 1250.59 317.094 1285.16 317.094C1312.35 317.094 1333.68 299.75 1340.48 277.836H1317.86C1312.59 291.312 1300.75 298.344 1284.7 298.344C1265.01 298.344 1247.2 283.344 1244.73 259.32H1343.88C1344.11 254.984 1344.23 253.227 1344.23 251.117ZM1245.67 241.508C1250.24 220.883 1266.88 209.867 1284.81 209.867C1305.2 209.867 1322.43 224.516 1323.6 241.508H1245.67Z" fill="#454540"/>
<path d="M1371.06 354.594H1391.22V302.328L1390.87 288.852C1399.3 306.195 1417 317.211 1436.69 317.211C1470.09 317.211 1495.4 289.203 1495.4 254.047C1495.4 219.125 1470.2 191 1436.45 191C1415.71 191 1398.72 203.305 1390.4 219.828V194.281H1371.06V354.594ZM1433.17 298.461C1410.2 298.461 1391.1 279.477 1391.1 254.047C1391.1 229.32 1409.85 209.75 1433.17 209.75C1456.49 209.75 1475.36 228.266 1475.36 254.047C1475.36 280.414 1456.14 298.461 1433.17 298.461Z" fill="#454540"/>
<path d="M1576.14 317.211C1611.88 317.211 1638.48 289.203 1638.48 254.047C1638.48 219.008 1611.77 190.883 1576.14 190.883C1540.63 190.883 1514.03 219.125 1514.03 254.047C1514.03 289.203 1540.75 317.211 1576.14 317.211ZM1576.38 298.227C1552.59 298.227 1534.19 279.477 1534.19 254.047C1534.19 228.852 1552.59 209.867 1576.38 209.867C1600.05 209.867 1618.33 228.852 1618.33 254.047C1618.33 279.477 1600.05 298.227 1576.38 298.227Z" fill="#454540"/>
<path d="M1667.08 313.812H1687.35V257.562C1687.35 228.734 1702.94 211.977 1723.91 211.977H1734.46V194.281H1722.86C1705.52 194.281 1692.39 204.477 1686.53 221V194.281H1667.08V313.812Z" fill="#454540"/>
<path d="M1808.41 313.812H1830.44V296.703H1812.39C1801.73 296.703 1790.95 292.719 1790.95 270.453V211.977H1830.44V194.281H1790.95V158.656L1770.79 158.773V194.281H1744.19V211.977H1770.79V269.516C1770.79 306.781 1790.24 313.812 1808.41 313.812Z" fill="#454540"/>
<path d="M469.188 158.07C469.188 165.219 463.914 170.961 455.242 170.961C446.922 170.961 441.648 165.219 441.648 158.07C441.648 151.039 446.922 145.297 455.359 145.297C463.914 145.297 469.188 151.039 469.188 158.07Z" fill="#454540"/>
<g opacity="0.4">
<circle cx="131" cy="170.599" r="24" fill="#00BDE3"/>
<circle cx="131" cy="170.599" r="24" transform="rotate(-180 131 170.599)" fill="#00BDE3"/>
<circle cx="131.452" cy="50.0512" r="8" transform="rotate(-22.5 131.452 50.0512)" fill="#00BDE3"/>
<circle cx="130.548" cy="291.146" r="8" transform="rotate(157.5 130.548 291.146)" fill="#00BDE3"/>
<circle cx="85.2864" cy="59.0537" r="8" transform="rotate(-45 85.2864 59.0537)" fill="#00BDE3"/>
<circle cx="176.714" cy="282.143" r="8" transform="rotate(135 176.714 282.143)" fill="#00BDE3"/>
<circle cx="19.8018" cy="124.049" r="8" transform="rotate(-90 19.8018 124.049)" fill="#00BDE3"/>
<circle cx="242.198" cy="217.148" r="8" transform="rotate(90 242.198 217.148)" fill="#00BDE3"/>
<circle cx="19.4561" cy="216.311" r="8" transform="rotate(-135 19.4561 216.311)" fill="#00BDE3"/>
<circle cx="242.545" cy="124.885" r="8" transform="rotate(45 242.545 124.885)" fill="#00BDE3"/>
<circle cx="84.4502" cy="281.797" r="8" transform="rotate(-180 84.4502 281.797)" fill="#00BDE3"/>
<circle cx="177.55" cy="59.4004" r="8" fill="#00BDE3"/>
<circle cx="131" cy="170.599" r="24" transform="rotate(90 131 170.599)" fill="#00BDE3"/>
<circle cx="251.547" cy="171.051" r="8" transform="rotate(67.5 251.547 171.051)" fill="#00BDE3"/>
<circle cx="131" cy="170.599" r="24" transform="rotate(-90 131 170.599)" fill="#00BDE3"/>
<circle cx="10.4526" cy="170.146" r="8" transform="rotate(-112.5 10.4526 170.146)" fill="#00BDE3"/>
<circle cx="131" cy="170.598" r="24" transform="rotate(45 131 170.598)" fill="#00BDE3"/>
<circle cx="216.56" cy="85.6781" r="8" transform="rotate(22.5 216.56 85.6781)" fill="#00BDE3"/>
<circle cx="131" cy="170.598" r="24" transform="rotate(-135 131 170.598)" fill="#00BDE3"/>
<circle cx="45.44" cy="255.518" r="8" transform="rotate(-157.5 45.44 255.518)" fill="#00BDE3"/>
<circle cx="131" cy="170.599" r="24" transform="rotate(-45 131 170.599)" fill="#00BDE3"/>
<circle cx="46.0804" cy="85.0386" r="8" transform="rotate(-67.5 46.0804 85.0386)" fill="#00BDE3"/>
<circle cx="215.92" cy="256.159" r="8" transform="rotate(112.5 215.92 256.159)" fill="#00BDE3"/>
</g>
<g opacity="0.6">
<circle cx="131" cy="100.504" r="16" transform="rotate(90 131 100.504)" fill="#00BDE3"/>
<circle cx="131" cy="240.693" r="16" transform="rotate(-90 131 240.693)" fill="#00BDE3"/>
<circle cx="201.096" cy="170.599" r="16" transform="rotate(-180 201.096 170.599)" fill="#00BDE3"/>
<circle cx="60.9053" cy="170.599" r="16" fill="#00BDE3"/>
<circle cx="180.565" cy="121.034" r="16" transform="rotate(135 180.565 121.034)" fill="#00BDE3"/>
<circle cx="81.436" cy="220.163" r="16" transform="rotate(-45 81.436 220.163)" fill="#00BDE3"/>
<circle cx="81.4355" cy="121.034" r="16" transform="rotate(45 81.4355 121.034)" fill="#00BDE3"/>
<circle cx="180.564" cy="220.163" r="16" transform="rotate(-135 180.564 220.163)" fill="#00BDE3"/>
</g>
<circle cx="131" cy="170.599" r="24" transform="rotate(135 131 170.599)" fill="#00BDE3"/>
</svg>
